# Blender v2.72 (sub 0) OBJ File: 'map.blend'
# www.blender.org
mtllib map.mtl
o Plane
v 32.882282 -0.718508 32.909805
v 32.819847 5.327855 -2.792833
v -2.062228 0.310103 -32.865345
v -32.896069 -0.985388 -5.465747
v -14.534043 1.245305 31.266539
v 16.436584 -1.045294 -32.872986
v -0.130793 1.313177 -17.577808
v -0.994666 6.979323 12.996051
v -21.484205 -1.031111 -2.674378
v 26.390394 3.838150 32.880249
v -1.185268 1.734656 -25.400208
v -25.306751 1.248936 -0.848816
v 32.925140 3.800822 24.374638
v -8.423604 1.939811 -0.911688
v 8.150728 2.204088 -17.869474
v 28.545404 0.299720 32.380016
v 32.874752 2.501438 3.850072
v -2.284919 2.833925 -30.528578
v -32.900509 -1.045294 -20.538706
v -20.566235 -1.045294 32.909805
v 2.697577 3.479509 -17.733021
v -32.900513 -1.045295 -22.594328
v 32.867592 -1.056158 -21.639565
v -20.892435 3.599784 -32.870483
v 32.876003 -1.391164 9.859190
v 2.439723 0.087991 -32.874817
v -0.909637 2.395010 -21.849533
v -26.219444 -1.045294 32.909805
v 32.882252 0.619747 26.742643
v 13.627798 -0.876587 -6.025689
v -14.525105 2.330251 -27.805027
v -9.316943 -1.958773 2.603155
v 7.317614 2.273701 -13.979414
v 5.289938 -2.945544 -4.757846
v -10.122020 -1.032032 20.192055
v 2.462556 2.730643 24.642555
v 23.633051 2.817698 28.111912
v -6.152895 -1.001467 -22.984325
v -12.501187 -0.741133 10.017639
v 3.103145 2.676038 -29.721552
v -5.999746 2.858101 -6.023291
v 2.436599 5.327883 20.094254
v 17.947113 -1.135268 26.957626
v -32.900513 -1.045293 32.909805
v -32.141678 -1.679985 -32.287086
v 32.969006 -0.567767 -16.300034
v 17.101688 -1.010816 11.183276
v 21.981623 1.237919 33.257935
v 32.882282 -1.045293 -32.872986
v -8.802466 3.543149 31.146982
v 19.557175 -1.115059 32.922638
v 1.328121 -3.490982 -10.430349
v -24.676369 2.520340 15.679152
v -16.733295 6.722596 -25.606047
v 7.258567 4.775833 -26.125378
v -24.862539 4.116988 -26.702927
v -33.037235 0.911499 -26.533199
v -25.293026 -1.022422 -16.468956
v -8.351238 -1.886421 -14.965050
v -8.515582 2.061407 23.045408
v -0.945912 4.384378 6.409011
v -4.196246 -1.152533 32.904274
v 32.857620 2.847856 -12.030168
v -18.504959 -1.045694 32.909588
v -2.764638 3.114479 20.759487
v -13.260093 -1.024929 1.000667
v 20.816740 2.765107 -2.095296
v -13.326377 -1.235364 -16.387951
v -32.910408 2.648352 20.570124
v -32.886360 4.207232 6.901039
v -32.922672 0.830591 -30.841389
v 32.882282 0.619759 30.854099
v -4.951890 -0.447422 -1.281867
v 28.314507 4.973953 0.523954
v 12.961318 -1.055996 21.213522
v -9.312733 -0.734147 9.767603
v 23.905254 3.679699 -3.295222
v -6.474878 1.152013 -11.553336
v -9.083074 3.785657 27.564728
v -5.817410 -0.994075 -30.845854
v -3.942494 -1.802334 3.562665
v 7.182629 -0.447946 -29.479994
v 12.375533 -1.013655 -14.658578
v 28.277431 2.221009 -17.414877
v -21.869654 3.989371 -30.357407
v -24.638405 0.860006 2.845516
v -20.538050 1.224395 2.340767
v -18.761097 -0.915560 16.292765
v 9.287568 -2.303178 -0.457396
v 6.226436 1.873302 19.993086
v 24.854187 3.153904 18.994781
v -16.541590 -0.627518 -32.911617
v -12.923455 3.929059 -20.666771
v -4.715933 2.824911 9.956707
v 16.300135 -0.953861 -0.701144
v 3.771848 5.950674 -20.321854
v 11.723594 -1.000729 -26.192513
v 1.973368 4.103546 -14.425322
v -3.154646 -0.733678 -13.186783
v 17.676594 2.331195 -7.825579
v 28.269207 5.082140 -6.050332
v -28.762327 4.096044 -32.872948
v -20.734413 6.172863 -21.272081
v -29.221268 1.754864 0.310124
v -29.553635 5.723655 7.172528
v -32.901039 2.689186 12.307149
v -24.205639 2.968721 7.371038
v -18.981911 2.305510 11.749889
v -14.406992 1.603451 23.461357
v -0.278839 -0.986790 1.333881
v 8.880299 -1.105921 6.987569
v 2.572554 6.712504 12.261951
v 8.862081 -0.741317 27.875614
v 20.678421 2.128154 17.938019
v 21.216877 0.128308 24.819118
v 26.868500 6.653657 23.675419
v 32.879246 1.196943 15.586955
v 23.070116 7.106833 -9.416906
v -31.365725 3.263893 -28.990036
v -12.000697 5.601084 -7.819602
v -4.965746 -0.454637 -7.911856
v -29.036222 1.158999 19.645594
v -32.886024 -0.898894 24.121990
v 4.833051 -3.117859 -0.833830
v 8.227066 -1.047041 -32.872948
v 24.462559 -0.779390 1.629317
v 29.693365 2.012926 3.310125
v 26.035526 4.480641 -14.371446
v -6.748122 2.360768 18.138493
v 10.131418 -1.975263 17.557236
v 20.197241 -0.765078 -22.576208
v -12.106655 -0.858952 6.021106
v 26.854956 1.926084 13.700373
v 2.158743 5.004907 -25.357225
v 0.583967 -1.664467 -3.453715
v 9.224654 -1.723189 -9.470672
v 17.747231 3.000053 -13.089912
v 29.440310 6.494934 -3.256859
v -24.173538 2.109988 -19.695272
v -32.971001 2.376517 -1.903267
v -14.598060 -0.473390 -13.503692
v -20.848352 -0.930206 -6.587398
v -11.256683 4.723783 -2.933105
v -23.465902 -0.784430 24.127216
v -17.185095 -0.797828 21.581463
v -6.386775 0.211164 22.104944
v 5.546695 0.709772 5.213681
v 5.511310 1.734242 10.990242
v -2.027349 0.919995 25.185581
v -3.669721 -1.066232 28.521872
v 30.294458 3.546551 29.828768
vt 0.949117 0.458413
vt 0.999899 0.441641
vt 0.999899 0.543027
vt 0.453351 0.702258
vt 0.533024 0.718706
vt 0.491522 0.765927
vt 0.354753 0.458853
vt 0.375026 0.513997
vt 0.294649 0.490264
vt 0.427042 0.336619
vt 0.489519 0.299461
vt 0.483303 0.399702
vt 0.055499 0.201558
vt 0.141530 0.143593
vt 0.127224 0.257581
vt 0.573287 0.512917
vt 0.629682 0.390948
vt 0.641552 0.510675
vt 0.959349 0.049414
vt 0.999900 0.093832
vt 0.999889 0.129630
vt 0.391478 0.854784
vt 0.480990 0.893100
vt 0.411131 0.966857
vt 0.996671 0.349069
vt 0.868818 0.474677
vt 0.125165 0.902585
vt 0.238402 0.883140
vt 0.172950 0.959685
vt 0.303129 0.814250
vt 0.275796 0.924126
vt 0.485764 0.826664
vt 0.317047 0.409239
vt 0.363648 0.358887
vt 0.202519 0.253376
vt 0.356276 0.199251
vt 0.303102 0.336705
vt 0.781363 0.312890
vt 0.996281 0.267591
vt 0.901267 0.285400
vt 0.531719 0.884490
vt 0.559251 0.814194
vt 0.607325 0.898144
vt 0.528800 0.650211
vt 0.613383 0.717513
vt 0.514335 0.552395
vt 0.580581 0.576741
vt 0.737679 0.495866
vt 0.708415 0.591661
vt 0.056441 0.492238
vt 0.118055 0.514159
vt 0.000952 0.531438
vt 0.202324 0.322164
vt 0.218794 0.000120
vt 0.281860 0.119457
vt 0.251214 0.166294
vt 0.403021 0.158194
vt 0.450299 0.075766
vt 0.468693 0.112759
vt 0.577612 0.328945
vt 0.573673 0.416320
vt 0.655450 0.232893
vt 0.630416 0.085949
vt 0.537771 0.135294
vt 0.820110 0.126658
vt 0.912053 0.139313
vt 0.876644 0.211268
vt 0.999900 0.031344
vt 0.468757 0.964268
vt 0.468652 0.999899
vt 0.687462 0.723073
vt 0.776824 0.699496
vt 0.798115 0.840206
vt 0.994654 0.681411
vt 0.999834 0.748634
vt 0.933794 0.763145
vt 0.249385 0.999445
vt 0.181504 0.999900
vt 0.367252 0.734521
vt 0.772233 0.093837
vt 0.691946 0.178723
vt 0.630599 0.964713
vt 0.678432 0.897485
vt 0.811761 0.221888
vt 0.623945 0.766513
vt 0.540999 0.770728
vt 0.852499 0.646454
vt 0.890501 0.715443
vt 0.863904 0.549691
vt 0.769992 0.611880
vt 0.914702 0.597770
vt 0.062605 0.999804
vt 0.137734 0.806641
vt 0.033001 0.940413
vt 0.186107 0.827665
vt 0.156309 0.538249
vt 0.000101 0.585826
vt 0.329141 0.550112
vt 0.405074 0.584951
vt 0.428984 0.523951
vt 0.421958 0.623597
vt 0.120427 0.390434
vt 0.127871 0.459557
vt 0.364697 0.062736
vt 0.372045 0.125277
vt 0.496942 0.474920
vt 0.440013 0.429904
vt 0.931805 0.500000
vt 0.631784 0.643864
vt 0.192876 0.602367
vt 0.276378 0.702547
vt 0.296983 0.749650
vt 0.190210 0.466631
vt 0.455745 0.178870
vt 0.404219 0.224873
vt 0.545691 0.946661
vt 0.537476 0.999899
vt 0.609956 0.947674
vt 0.812590 0.526504
vt 0.949084 0.548935
vt 0.000100 0.969022
vt 0.000442 0.999900
vt 0.000100 0.843679
vt 0.320478 0.615312
vt 0.000102 0.394683
vt 0.051152 0.388662
vt 0.001179 0.318413
vt 0.000102 0.187645
vt 0.368385 0.000108
vt 0.437216 0.000101
vt 0.535398 0.194070
vt 0.536378 0.310093
vt 0.601099 0.197044
vt 0.795752 0.003245
vt 0.850067 0.073785
vt 0.901274 0.000220
vt 0.933986 0.000100
vt 0.999900 0.000100
vt 0.114570 0.749602
vt 0.992604 0.818533
vt 0.000105 0.132068
vt 0.000196 0.905294
vt 0.281911 0.000114
vt 0.404636 0.666586
vt 0.999899 0.999898
vt 0.000102 0.000101
vt 0.843681 0.000100
vn -0.203500 0.900300 0.384700
vn -0.697400 0.699900 -0.154000
vn -0.131900 0.680300 0.721000
vn -0.591400 0.748700 -0.299300
vn 0.036000 0.932400 0.359600
vn -0.163900 0.972500 -0.165400
vn 0.852100 0.305100 0.425200
vn -0.489800 0.871600 -0.020100
vn -0.520900 0.627200 0.579100
vn -0.215900 0.819500 0.530900
vn -0.264900 0.931500 -0.249500
vn 0.784700 0.543600 -0.297800
vn -0.522100 0.844900 -0.116600
vn 0.179100 0.969700 -0.165900
vn 0.000600 0.999600 0.028400
vn 0.027900 0.998600 0.045700
vn 0.232700 0.886200 -0.400600
vn 0.015600 0.981800 -0.189400
vn -0.113700 0.603900 0.788900
vn 0.281200 0.956700 0.074800
vn -0.184300 0.977100 0.106700
vn 0.139900 0.989300 0.040800
vn 0.387900 0.760700 0.520500
vn -0.630700 0.774000 -0.056600
vn -0.117000 0.692600 -0.711700
vn -0.374800 0.866000 0.331100
vn 0.465500 0.871900 -0.151800
vn 0.636200 0.771400 -0.011900
vn -0.120900 0.548000 0.827700
vn -0.760300 0.632900 -0.146000
vn 0.749200 0.662400 -0.000000
vn -0.535800 0.547700 -0.642600
vn -0.457600 0.779600 -0.427600
vn 0.523800 0.671800 -0.523700
vn 0.688800 0.707400 0.158200
vn 0.364500 0.736100 -0.570300
vn -0.286600 0.928700 0.235500
vn -0.006100 0.999800 -0.020400
vn 0.007300 0.999900 0.007500
vn -0.032000 0.999400 0.009800
vn 0.000100 0.999600 0.028600
vn -0.023200 0.999700 0.006400
vn -0.194100 0.924900 -0.327000
vn 0.576800 0.795600 0.185500
vn 0.228400 0.973100 0.031500
vn -0.228800 0.796800 -0.559300
vn -0.501300 0.724000 0.473700
vn 0.025800 0.873800 0.485600
vn 0.021700 0.999600 -0.017100
vn -0.223600 0.931000 0.288600
vn 0.236300 0.912500 0.333900
vn 0.156300 0.763600 -0.626500
vn 0.498500 0.780800 0.376700
vn 0.954200 0.299200 -0.002300
vn 0.359500 0.911400 -0.200300
vn 0.391800 0.819000 -0.419100
vn 0.474600 0.728800 0.493700
vn -0.097800 0.925700 -0.365500
vn 0.117800 0.832800 -0.541000
vn 0.531600 0.834600 -0.144800
vn -0.058800 0.884900 0.462100
vn -0.059800 0.951200 0.302900
vn -0.070700 0.968600 0.238200
vn -0.498300 0.672600 -0.547100
vn -0.486700 0.467600 0.737900
vn -0.198800 0.979900 0.013300
vn -0.613100 0.784700 0.091500
vn 0.543000 0.814400 -0.204600
vn 0.458800 0.868900 -0.186000
vn 0.062400 0.989700 -0.129100
vn -0.284600 0.948000 -0.142500
vn -0.525400 0.736400 -0.426200
vn 0.248000 0.956900 -0.151000
vn 0.301300 0.940400 -0.157900
vn 0.463800 0.845600 0.264300
vn -0.447300 0.769400 0.456000
vn -0.014500 0.999900 0.005800
vn -0.050500 0.810200 -0.584000
vn -0.563600 0.770500 0.297900
vn 0.264900 0.959800 -0.092600
vn -0.719400 0.693600 -0.036000
vn -0.606000 0.788400 -0.105800
vn -0.040300 0.724100 -0.688500
vn 0.036600 0.768700 -0.638600
vn -0.613700 0.633700 -0.471000
vn 0.418000 0.486600 -0.767100
vn -0.614200 0.787700 0.048800
vn -0.635000 0.673100 0.379100
vn 0.175700 0.674700 0.716900
vn -0.029000 0.999600 0.002800
vn -0.236100 0.675400 0.698600
vn -0.225200 0.972200 0.064100
vn -0.538000 0.810000 0.233500
vn 0.039600 0.742900 0.668200
vn -0.437200 0.863000 -0.253200
vn -0.443700 0.869400 0.217600
vn 0.162000 0.529800 -0.832500
vn -0.684000 0.680700 0.262200
vn -0.037000 0.639300 0.768100
vn 0.004900 1.000000 -0.003500
vn -0.566400 0.679100 -0.467000
vn -0.557500 0.798200 0.228200
vn -0.566900 0.590600 0.574300
vn 0.549100 0.737600 0.392900
vn 0.173100 0.979000 -0.107400
vn -0.329300 0.810400 -0.484600
vn -0.001600 0.998600 0.053800
vn 0.401600 0.635400 0.659500
vn -0.104300 0.703000 -0.703500
vn 0.723700 0.687500 -0.060000
vn 0.054900 0.395300 -0.916900
vn 0.109200 0.978500 0.174900
vn 0.850100 0.521100 -0.075600
vn -0.011500 0.999900 -0.000200
vn -0.292300 0.829700 0.475500
vn 0.405800 0.899400 0.162600
vn -0.019800 0.993100 0.115500
vn 0.044300 0.998800 -0.019900
vn -0.585000 0.796100 0.155200
vn -0.227300 0.812500 0.536800
vn -0.062700 0.982700 -0.174100
vn 0.606200 0.263100 0.750500
vn 0.129000 0.831100 0.541000
vn 0.372500 0.722000 0.583000
vn 0.017900 0.999700 -0.017400
vn 0.391100 0.809500 -0.437900
vn 0.027300 0.997900 -0.059100
vn 0.033700 0.999400 0.002400
vn 0.340600 0.773800 -0.534100
vn 0.150100 0.985700 0.076600
vn -0.012200 0.999300 0.036600
vn -0.754300 0.656300 0.017400
vn 0.392700 0.890200 0.230900
vn 0.382000 0.560100 -0.735100
vn -0.128700 0.913300 -0.386500
vn -0.130600 0.903400 -0.408500
vn 0.364500 0.913400 0.181100
vn 0.524300 0.847000 -0.087400
vn 0.565300 0.597100 -0.569100
vn -0.361700 0.932300 0.003700
vn 0.504800 0.612200 -0.608600
vn 0.621900 0.782300 -0.034300
vn 0.196200 0.953500 -0.228700
vn -0.793100 0.419200 -0.441900
vn -0.164000 0.981300 0.100300
vn -0.412600 0.781700 0.467700
vn 0.025700 0.342700 0.939100
vn -0.057300 0.998200 0.016400
vn -0.011400 0.999600 0.023900
vn 0.177400 0.968000 -0.177500
vn 0.190700 0.610200 -0.768900
vn -0.402300 0.914800 0.035400
vn 0.626000 0.518400 -0.582500
vn -0.175900 0.941500 0.287400
vn -0.296500 0.910600 0.287900
vn -0.578300 0.799300 0.163400
vn -0.715200 0.636000 0.289700
vn 0.152400 0.958400 -0.241200
vn -0.191900 0.967300 -0.166000
vn 0.435900 0.862300 -0.257800
vn 0.494800 0.817700 -0.294200
vn -0.235300 0.578600 0.780900
vn 0.330000 0.938200 -0.104800
vn -0.524700 0.694500 0.492200
vn -0.004500 1.000000 0.001900
vn 0.011800 0.743500 -0.668600
vn 0.387100 0.916000 0.105500
vn 0.214200 0.976800 -0.001500
vn 0.424500 0.792500 -0.437800
vn 0.336300 0.698300 0.631900
vn 0.602400 0.640400 -0.476400
vn 0.669000 0.729800 0.140600
vn -0.505100 0.812000 -0.292500
vn -0.000100 1.000000 0.001000
vn 0.447400 0.540100 0.712800
vn 0.001400 0.985700 -0.168500
vn -0.681200 0.551500 -0.481500
vn 0.191300 0.975000 -0.113300
vn 0.198700 0.973800 -0.110800
vn 0.560800 0.441600 -0.700400
vn 0.532900 0.732400 0.423800
vn -0.598800 0.797400 0.074200
vn 0.131900 0.957500 -0.256500
vn 0.074000 0.724200 -0.685600
vn 0.897700 0.393400 -0.198500
vn 0.507100 0.861100 0.036700
vn 0.484300 0.856800 0.177300
vn 0.511500 0.859300 -0.002100
vn 0.428800 0.903300 0.015700
vn 0.011500 0.999700 0.023200
vn -0.481200 0.751600 0.451200
vn -0.446500 0.769000 0.457400
vn 0.418900 0.749500 -0.512600
vn -0.221400 0.885500 -0.408600
vn 0.060900 0.819700 -0.569600
vn 0.058500 0.821700 -0.567000
vn 0.580500 0.492200 0.648700
vn 0.090900 0.986800 0.133800
vn 0.015600 0.999200 -0.036600
vn -0.004500 0.999500 -0.029900
vn -0.191100 0.981500 0.008200
vn -0.782700 0.609700 0.125000
vn -0.161500 0.946200 -0.280400
vn 0.168400 0.972300 -0.161900
vn 0.128100 0.679900 -0.722100
vn -0.002800 0.977700 0.210200
vn -0.032200 0.878900 -0.476000
vn -0.696500 0.713200 -0.078600
vn -0.570100 0.765700 0.297900
vn 0.787500 0.607500 0.104100
vn 0.551800 0.827600 0.103400
vn -0.594400 0.756500 -0.272900
vn 0.003000 0.245000 0.969500
vn -0.225400 0.972200 0.064000
vn 0.359600 0.930700 -0.066900
vn -0.181700 0.983100 0.022000
vn -0.236500 0.969500 0.064000
vn -0.645700 0.758500 0.087700
vn -0.258600 0.963500 0.068800
vn -0.553700 0.780900 0.289200
vn -0.637700 0.533700 0.555400
vn 0.243200 0.872600 0.423500
vn -0.830500 0.556100 -0.032500
vn -0.346300 0.835300 0.427000
vn 0.008000 0.716100 0.698000
vn 0.197500 0.715000 -0.670600
vn 0.042700 0.672800 -0.738600
vn 0.469100 0.831800 -0.296900
vn -0.025100 0.570500 0.820900
vn 0.273100 0.941300 -0.198400
vn -0.418000 0.874900 0.244500
vn 0.077600 0.995300 0.058100
vn 0.018500 0.999800 0.005000
vn 0.403400 0.648800 0.645200
vn -0.011300 0.912200 0.409600
vn 0.000000 0.999900 0.016700
vn 0.027200 0.999200 -0.030300
vn -0.489500 0.871400 0.032000
vn -0.368900 0.924900 0.091500
vn 0.580400 0.782500 -0.225700
vn 0.783700 0.620800 -0.019400
vn 0.312900 0.948100 0.056300
vn -0.247100 0.967600 -0.052100
vn -0.005800 0.930400 -0.366600
vn 0.679500 0.730800 -0.065300
vn -0.450000 0.884100 0.126000
vn -0.325800 0.873900 0.360800
vn -0.282600 0.839800 0.463500
vn 0.627800 0.677500 0.383300
vn 0.004200 0.858300 0.513100
vn -0.001600 0.999800 0.019500
vn -0.704000 0.708900 0.043300
vn 0.028700 0.999500 -0.011100
vn -0.349400 0.475100 -0.807600
vn 0.251600 0.510500 0.822200
usemtl Material
s off
f 127/1/1 17/2/1 2/3/1
f 99/4/2 98/5/2 7/6/2
f 32/7/3 14/8/3 66/9/3
f 94/10/4 8/11/4 61/12/4
f 122/13/5 144/14/5 53/15/5
f 124/16/6 111/17/6 89/18/6
f 151/19/7 29/20/7 13/21/7
f 38/22/8 11/23/8 80/24/8
f 25/25/9 127/1/9 126/26/9
f 25/25/10 17/2/10 127/1/10
f 56/27/11 54/28/11 85/29/11
f 93/30/12 31/31/12 54/28/12
f 38/22/13 27/32/13 11/23/13
f 132/33/14 76/34/14 32/7/14
f 88/35/15 35/36/15 39/37/15
f 25/25/16 126/26/16 47/38/16
f 117/39/17 25/25/17 133/40/17
f 134/41/18 96/42/18 55/43/18
f 52/44/19 33/45/19 99/4/19
f 135/46/20 124/16/20 34/47/20
f 95/48/21 30/49/21 89/18/21
f 104/50/22 12/51/22 140/52/22
f 53/15/23 88/35/23 108/53/23
f 64/54/24 109/55/24 145/56/24
f 109/55/25 35/36/25 145/56/25
f 146/57/26 150/58/26 149/59/26
f 148/60/27 147/61/27 61/12/27
f 148/60/28 130/62/28 111/17/28
f 149/59/29 113/63/29 36/64/29
f 115/65/30 116/66/30 91/67/30
f 72/68/31 29/20/31 151/19/31
f 80/24/32 18/69/32 3/70/32
f 83/71/33 137/72/33 131/73/33
f 63/74/34 46/75/34 84/76/34
f 85/29/35 92/77/35 24/78/35
f 31/31/36 92/77/36 85/29/36
f 99/4/37 7/6/37 59/79/37
f 145/56/38 88/35/38 144/14/38
f 43/80/39 47/38/39 75/81/39
f 131/73/40 125/82/40 97/83/40
f 35/36/41 76/34/41 39/37/41
f 47/38/42 126/26/42 95/48/42
f 114/84/43 133/40/43 47/38/43
f 96/42/44 15/85/44 55/43/44
f 33/45/45 15/85/45 21/86/45
f 137/72/46 118/87/46 128/88/46
f 77/89/47 118/87/47 100/90/47
f 77/89/48 101/91/48 118/87/48
f 56/27/49 85/29/49 102/92/49
f 139/93/50 56/27/50 119/94/50
f 93/30/51 54/28/51 103/95/51
f 12/51/52 9/96/52 4/97/52
f 143/98/53 14/8/53 41/99/53
f 73/100/54 121/101/54 41/99/54
f 135/46/55 52/44/55 121/101/55
f 107/102/56 86/103/56 104/50/56
f 108/53/57 88/35/57 39/37/57
f 109/55/58 79/104/58 60/105/58
f 147/61/59 124/16/59 110/106/59
f 148/60/60 111/17/60 147/61/60
f 80/24/61 3/70/61 92/77/61
f 32/7/62 110/106/62 73/100/62
f 81/107/63 110/106/63 32/7/63
f 76/34/64 94/10/64 81/107/64
f 127/1/65 74/108/65 126/26/65
f 30/49/66 83/71/66 136/109/66
f 100/90/67 137/72/67 83/71/67
f 101/91/68 84/76/68 128/88/68
f 118/87/69 101/91/69 128/88/69
f 85/29/70 24/78/70 102/92/70
f 103/95/71 54/28/71 56/27/71
f 142/110/72 141/111/72 68/112/72
f 108/53/73 87/113/73 107/102/73
f 108/53/74 132/33/74 87/113/74
f 144/14/75 88/35/75 53/15/75
f 149/59/76 65/114/76 146/57/76
f 47/38/77 95/48/77 111/17/77
f 116/66/78 117/39/78 91/67/78
f 7/6/79 27/32/79 38/22/79
f 132/33/80 32/7/80 66/9/80
f 35/36/81 129/115/81 76/34/81
f 129/115/82 94/10/82 76/34/82
f 133/40/83 25/25/83 47/38/83
f 40/116/84 26/117/84 3/70/84
f 11/23/85 134/41/85 40/116/85
f 55/43/86 82/118/86 40/116/86
f 96/42/87 134/41/87 27/32/87
f 21/86/88 96/42/88 27/32/88
f 21/86/89 15/85/89 96/42/89
f 131/73/90 97/83/90 83/71/90
f 52/44/91 136/109/91 33/45/91
f 34/47/92 89/18/92 136/109/92
f 67/119/93 100/90/93 30/49/93
f 126/26/94 77/89/94 67/119/94
f 138/120/95 101/91/95 77/89/95
f 74/108/96 138/120/96 77/89/96
f 71/121/97 119/94/97 45/122/97
f 139/93/98 103/95/98 56/27/98
f 68/112/99 93/30/99 139/93/99
f 9/96/100 22/123/100 4/97/100
f 142/110/101 120/124/101 141/111/101
f 143/98/102 120/124/102 142/110/102
f 66/9/103 143/98/103 142/110/103
f 14/8/104 73/100/104 41/99/104
f 110/106/105 135/46/105 73/100/105
f 70/125/106 105/126/106 104/50/106
f 53/15/107 107/102/107 106/127/107
f 69/128/108 122/13/108 53/15/108
f 109/55/109 60/105/109 35/36/109
f 50/129/110 62/130/110 146/57/110
f 61/12/111 147/61/111 81/107/111
f 42/131/112 112/132/112 8/11/112
f 90/133/113 148/60/113 112/132/113
f 75/81/114 47/38/114 111/17/114
f 36/64/115 42/131/115 65/114/115
f 36/64/116 113/63/116 90/133/116
f 51/134/117 113/63/117 150/58/117
f 51/134/118 75/81/118 113/63/118
f 51/134/119 37/135/119 43/80/119
f 151/19/120 116/66/120 37/135/120
f 10/136/121 151/19/121 37/135/121
f 10/136/122 16/137/122 151/19/122
f 16/137/123 1/138/123 72/68/123
f 74/108/124 127/1/124 2/3/124
f 142/110/125 68/112/125 58/139/125
f 87/113/126 132/33/126 9/96/126
f 131/73/127 23/140/127 125/82/127
f 38/22/128 80/24/128 92/77/128
f 138/120/129 2/3/129 101/91/129
f 104/50/130 86/103/130 12/51/130
f 123/141/131 64/54/131 144/14/131
f 115/65/132 37/135/132 116/66/132
f 116/66/133 151/19/133 13/21/133
f 54/28/134 31/31/134 85/29/134
f 9/96/135 86/103/135 87/113/135
f 107/102/136 87/113/136 86/103/136
f 113/63/137 75/81/137 90/133/137
f 84/76/138 46/75/138 23/140/138
f 31/31/139 38/22/139 92/77/139
f 59/79/140 7/6/140 38/22/140
f 40/116/141 82/118/141 26/117/141
f 15/85/142 83/71/142 97/83/142
f 135/46/143 34/47/143 52/44/143
f 45/122/144 119/94/144 102/92/144
f 119/94/145 56/27/145 102/92/145
f 58/139/146 119/94/146 57/142/146
f 139/93/147 93/30/147 103/95/147
f 9/96/148 142/110/148 58/139/148
f 9/96/149 66/9/149 142/110/149
f 141/111/150 59/79/150 68/112/150
f 60/105/151 146/57/151 35/36/151
f 5/143/152 79/104/152 109/55/152
f 112/132/153 148/60/153 61/12/153
f 43/80/154 115/65/154 114/84/154
f 114/84/155 115/65/155 91/67/155
f 51/134/156 10/136/156 37/135/156
f 11/23/157 18/69/157 80/24/157
f 101/91/158 63/74/158 84/76/158
f 89/18/159 111/17/159 95/48/159
f 116/66/160 13/21/160 117/39/160
f 93/30/161 38/22/161 31/31/161
f 95/48/162 126/26/162 67/119/162
f 98/5/163 33/45/163 21/86/163
f 58/139/164 139/93/164 119/94/164
f 9/96/165 58/139/165 22/123/165
f 141/111/166 78/144/166 59/79/166
f 120/124/167 143/98/167 41/99/167
f 73/100/168 135/46/168 121/101/168
f 105/126/169 107/102/169 104/50/169
f 105/126/170 106/127/170 107/102/170
f 147/61/171 111/17/171 124/16/171
f 42/131/172 90/133/172 112/132/172
f 115/65/173 43/80/173 37/135/173
f 23/140/174 49/145/174 125/82/174
f 14/8/175 32/7/175 73/100/175
f 76/34/176 81/107/176 32/7/176
f 81/107/177 94/10/177 61/12/177
f 82/118/178 125/82/178 26/117/178
f 82/118/179 97/83/179 125/82/179
f 55/43/180 97/83/180 82/118/180
f 33/45/181 136/109/181 83/71/181
f 30/49/182 100/90/182 83/71/182
f 101/91/183 2/3/183 63/74/183
f 59/79/184 78/144/184 99/4/184
f 41/99/185 121/101/185 78/144/185
f 78/144/186 52/44/186 99/4/186
f 78/144/187 121/101/187 52/44/187
f 12/51/188 86/103/188 9/96/188
f 108/53/189 39/37/189 132/33/189
f 64/54/190 145/56/190 144/14/190
f 35/36/191 146/57/191 129/115/191
f 146/57/192 65/114/192 129/115/192
f 90/133/193 75/81/193 130/62/193
f 131/73/194 137/72/194 128/88/194
f 131/73/195 84/76/195 23/140/195
f 128/88/196 84/76/196 131/73/196
f 93/30/197 68/112/197 38/22/197
f 68/112/198 59/79/198 38/22/198
f 132/33/199 66/9/199 9/96/199
f 39/37/200 76/34/200 132/33/200
f 129/115/201 65/114/201 94/10/201
f 65/114/202 8/11/202 94/10/202
f 114/84/203 91/67/203 133/40/203
f 91/67/204 117/39/204 133/40/204
f 18/69/205 40/116/205 3/70/205
f 18/69/206 11/23/206 40/116/206
f 134/41/207 55/43/207 40/116/207
f 11/23/208 27/32/208 134/41/208
f 7/6/209 21/86/209 27/32/209
f 55/43/210 15/85/210 97/83/210
f 15/85/211 33/45/211 83/71/211
f 7/6/212 98/5/212 21/86/212
f 99/4/213 33/45/213 98/5/213
f 34/47/214 136/109/214 52/44/214
f 110/106/215 124/16/215 135/46/215
f 124/16/216 89/18/216 34/47/216
f 89/18/217 30/49/217 136/109/217
f 100/90/218 118/87/218 137/72/218
f 67/119/219 77/89/219 100/90/219
f 95/48/220 67/119/220 30/49/220
f 126/26/221 74/108/221 77/89/221
f 138/120/222 74/108/222 2/3/222
f 57/142/223 119/94/223 71/121/223
f 22/123/224 58/139/224 57/142/224
f 58/139/225 68/112/225 139/93/225
f 140/52/226 12/51/226 4/97/226
f 120/124/227 78/144/227 141/111/227
f 120/124/228 41/99/228 78/144/228
f 143/98/229 66/9/229 14/8/229
f 70/125/230 104/50/230 140/52/230
f 106/127/231 105/126/231 70/125/231
f 107/102/232 53/15/232 108/53/232
f 106/127/233 69/128/233 53/15/233
f 69/128/234 123/141/234 122/13/234
f 123/141/235 144/14/235 122/13/235
f 44/146/236 64/54/236 123/141/236
f 145/56/237 35/36/237 88/35/237
f 64/54/238 5/143/238 109/55/238
f 5/143/239 50/129/239 79/104/239
f 60/105/240 79/104/240 146/57/240
f 79/104/241 50/129/241 146/57/241
f 146/57/242 62/130/242 150/58/242
f 81/107/243 147/61/243 110/106/243
f 8/11/244 112/132/244 61/12/244
f 90/133/245 130/62/245 148/60/245
f 130/62/246 75/81/246 111/17/246
f 65/114/247 42/131/247 8/11/247
f 149/59/248 36/64/248 65/114/248
f 42/131/249 36/64/249 90/133/249
f 149/59/250 150/58/250 113/63/250
f 62/130/251 51/134/251 150/58/251
f 43/80/252 114/84/252 47/38/252
f 75/81/253 51/134/253 43/80/253
f 48/147/254 10/136/254 51/134/254
f 151/19/255 16/137/255 72/68/255
l 64 20
l 64 28
l 125 6
l 22 19
