# Blender v2.76 (sub 0) OBJ File: 'AnimalCrossingItem.blend'
# www.blender.org
mtllib hammer.mtl
o vsn_mesh_0__mesh_0_.002
v -9.097592 -0.000003 16.205839
v -9.097592 2.988270 13.217570
v -9.097592 -0.000002 11.980120
v -9.097592 4.226132 16.205839
v -9.097592 -2.988274 13.217568
v -9.097592 2.988269 19.194109
v -9.097592 -4.225726 16.205839
v -9.097592 -0.000003 20.431969
v -9.097592 -2.988275 19.194109
v 9.097592 -0.000003 16.205709
v 9.097592 -0.000002 11.979990
v 9.097592 2.988270 13.217851
v 9.097592 -2.988274 13.217849
v 9.097592 4.226132 16.205709
v 9.097592 -4.225726 16.205709
v 9.097592 2.988269 19.193979
v 9.097592 -2.988275 19.193979
v 9.097592 -0.000003 20.431850
v 2.773852 3.689258 12.516870
v 2.773852 -0.000002 10.988709
v 1.631654 3.320209 12.885631
v 8.159092 -0.000002 11.510329
v 1.631654 4.695382 16.205839
v 8.159092 3.320209 12.885501
v 2.773852 5.217000 16.205709
v 1.631654 -0.000002 11.510449
v 8.159092 -3.320213 12.885499
v 2.773852 -3.689262 12.516869
v 1.631654 3.320208 19.526049
v -1.631654 4.695382 16.205839
v -1.631654 3.320208 19.526049
v 9.097592 -0.000002 11.979990
v 8.159092 4.695382 16.205709
v 9.097592 2.988270 13.217851
v 1.631654 -3.320213 12.885629
v -1.631654 3.320209 12.885631
v -1.631654 -0.000002 11.510449
v 9.097592 -2.988274 13.217849
v 8.159092 -4.695388 16.205709
v 9.097592 -4.225726 16.205709
v -1.631654 -0.000003 20.901230
v 2.773852 3.689257 19.894970
v 1.631654 -0.000003 20.901230
v 9.097592 4.226132 16.205709
v -1.631654 -3.320213 12.885629
v 2.773852 -5.217006 16.205709
v 1.631654 -4.695388 16.205839
v -2.773852 5.217000 16.205839
v -2.773852 3.689258 12.516991
v 9.097592 -2.988275 19.193979
v -2.773852 -0.000003 21.423260
v -2.773852 3.689257 19.895100
v 2.773852 -0.000003 21.423130
v -1.631654 -3.320214 19.526049
v 1.631654 -3.320214 19.526049
v 8.159092 3.320208 19.525919
v -1.631654 -4.695388 16.205839
v -2.773852 -0.000002 10.988840
v -2.773852 -3.689262 12.516989
v 8.159092 -3.320214 19.525919
v 2.773852 -3.689263 19.894970
v -8.159092 -0.000003 20.901230
v -2.773852 -3.689263 19.895100
v -8.159092 -3.320214 19.526049
v -8.159092 4.695382 16.205839
v -8.159092 3.320208 19.526049
v 9.097592 2.988269 19.193979
v -8.159092 -0.000002 11.510449
v -2.773852 -5.217006 16.205839
v -8.159092 -3.320213 12.885629
v 8.159092 -0.000003 20.901510
v 9.097592 -0.000003 20.431850
v -9.097592 -2.988275 19.194109
v -8.159092 -4.695388 16.205839
v -9.097592 -4.225726 16.205839
v -8.159092 3.320209 12.885631
v -9.097592 -0.000003 20.431969
v -9.097592 2.988269 19.194109
v -9.097592 -2.988274 13.217568
v -9.097592 2.988270 13.217570
v -9.097592 -0.000002 11.980120
v -9.097592 4.226132 16.205839
v 0.349670 -0.275034 -4.794535
v -0.349670 0.275036 -4.794535
v 0.349670 0.275036 -4.794535
v -0.349670 -0.275034 -4.794535
v 0.712122 0.284932 -4.519500
v 0.362452 -0.560378 -4.519500
v 0.712122 -0.284930 -4.519500
v -0.712122 -0.284930 -4.519500
v -0.712122 0.284932 -4.519500
v -0.362452 -0.560378 -4.519500
v 0.362452 0.560379 -4.519500
v -1.384246 1.659690 21.530880
v 1.384246 1.659690 21.530880
v -0.362452 0.560379 -4.519500
v 0.349670 0.275036 -4.794535
v 0.712122 0.284932 -4.519500
v -0.349670 0.275036 -4.794535
v -0.712122 0.284932 -4.519500
v -1.394554 -1.394558 21.805500
v -1.384246 -1.659696 21.530880
v 1.394554 -1.394558 21.805500
v -1.659693 -1.384249 21.530880
v -1.659693 1.384243 21.530880
v -1.394554 1.394550 21.805500
v 1.384246 -1.659696 21.530880
v 1.659693 -1.384249 21.530880
v 1.394554 1.394550 21.805500
v -1.384246 1.659690 21.530880
v 1.384246 1.659690 21.530880
v 1.659693 1.384243 21.530880
v 0.362452 -0.560378 -4.519500
v -1.384246 -1.659696 21.530880
v -0.362452 -0.560378 -4.519500
v 1.384246 -1.659696 21.530880
v 1.394554 1.394550 21.805500
v -1.394554 -1.394558 21.805500
v 1.394554 -1.394558 21.805500
v -1.394554 1.394550 21.805500
v -0.712122 0.284932 -4.519500
v -1.659693 -1.384249 21.530880
v -1.659693 1.384243 21.530880
v -0.712122 -0.284930 -4.519500
v 0.712122 0.284932 -4.519500
v 1.659693 -1.384249 21.530880
v 0.712122 -0.284930 -4.519500
v 1.659693 1.384243 21.530880
v -1.659693 -1.384249 21.530880
v -0.362452 -0.560378 -4.519500
v -1.384246 -1.659696 21.530880
v -0.712122 -0.284930 -4.519500
v 1.384246 -1.659696 21.530880
v 0.712122 -0.284930 -4.519500
v 1.659693 -1.384249 21.530880
v 0.362452 -0.560378 -4.519500
v -1.384246 1.659690 21.530880
v -0.712122 0.284932 -4.519500
v -1.659693 1.384243 21.530880
v -0.362452 0.560379 -4.519500
v 1.659693 1.384243 21.530880
v 0.362452 0.560379 -4.519500
v 1.384246 1.659690 21.530880
v 0.712122 0.284932 -4.519500
vt 1.000000 1.000000
vt 1.707110 1.176780
vt 2.000000 1.000000
vt 1.000000 1.250000
vt 1.707110 0.823223
vt 0.292893 1.176780
vt 1.000000 0.750000
vt 0.000000 1.000000
vt 0.292893 0.823223
vt 0.304921 0.625000
vt 0.304921 0.742188
vt 0.179365 0.625000
vt 0.896825 0.742188
vt 0.179365 0.507813
vt 0.896825 0.625000
vt 0.304921 0.507813
vt 0.179365 0.742188
vt -0.179365 0.507813
vt -0.179365 0.625000
vt 1.000000 0.742188
vt 0.896825 0.507813
vt 1.000000 0.625000
vt -0.179365 0.742188
vt 1.000000 0.507813
vt -0.304921 0.507813
vt -0.304921 0.625000
vt -0.304921 0.742188
vt -0.896825 0.742188
vt -0.896825 0.625000
vt -0.896825 0.507813
vt -1.000000 0.625000
vt -1.000000 0.507813
vt -1.000000 0.742188
vt 0.000050 0.000000
vt -0.500000 0.000000
vt -0.750025 0.000000
vt -0.249974 0.000000
vt -0.628186 0.000000
vt 0.380589 0.000000
vt 0.141769 0.000000
vt -0.123938 0.000000
vt -0.380590 0.000000
vt 0.123939 0.000000
vt -0.874929 0.004456
vt -0.541215 0.491639
vt -0.955778 0.491636
vt -0.615933 0.004456
vt -0.875220 0.000000
vt -1.000000 0.004292
vt -0.625278 0.000000
vt -0.500000 0.004347
vt 0.000000 0.496094
vt 0.041211 0.496094
vt 0.417632 0.496094
vt -0.041211 0.496094
vt -0.455777 0.496094
vt -0.417632 0.496094
vt 0.455777 0.496094
vt 0.373355 0.496094
vt -0.835265 0.496094
vt -0.538200 0.496094
vt -0.952766 0.496094
vt -0.870343 0.496094
vt 0.384065 0.004453
vt 0.044223 0.491638
vt 0.125048 0.004480
vt 0.458789 0.491638
vt 0.504935 0.497795
vt 0.000000 0.000000
vt 0.504935 0.000000
vt 0.000000 0.497795
vt -0.481810 0.004456
vt -0.044223 0.491638
vt -0.458789 0.491638
vt -0.027328 0.004456
vt 0.874929 0.004456
vt 0.541211 0.491638
vt 0.615932 0.004456
vt 0.955777 0.491638
vt 0.029453 0.234375
vn -1.000000 0.000000 0.000000
vn 1.000000 0.000000 0.000000
vn -0.155700 0.698500 -0.698400
vn -0.155700 0.000000 -0.987800
vn -0.224200 0.689100 -0.689100
vn 0.265500 0.000000 -0.964100
vn -0.224200 0.974500 0.000000
vn 0.265500 0.681700 -0.681700
vn -0.155700 0.987800 0.000000
vn -0.224200 0.000000 -0.974500
vn 0.265500 -0.681700 -0.681700
vn -0.155700 -0.698500 -0.698400
vn -0.224300 0.689100 0.689100
vn 0.224200 0.974500 0.000000
vn 0.224300 0.689100 0.689100
vn 0.447500 0.000000 -0.894300
vn 0.265300 0.964100 0.000000
vn 0.447500 0.632400 -0.632300
vn -0.224200 -0.689100 -0.689100
vn 0.224200 0.689100 -0.689100
vn 0.224200 0.000000 -0.974500
vn 0.447600 -0.632400 -0.632300
vn 0.265400 -0.964100 0.000000
vn 0.447500 -0.894300 -0.000000
vn 0.224300 0.000000 0.974500
vn -0.155700 0.698500 0.698400
vn -0.224300 0.000000 0.974500
vn 0.447200 0.894400 -0.000000
vn 0.224200 -0.689100 -0.689100
vn -0.155700 -0.987800 0.000000
vn -0.224200 -0.974500 0.000000
vn 0.155700 0.987800 0.000000
vn 0.155700 0.698500 -0.698400
vn 0.447300 -0.632400 0.632400
vn 0.155800 0.000000 0.987800
vn 0.155700 0.698500 0.698400
vn -0.155800 0.000000 0.987800
vn 0.224300 -0.689100 0.689100
vn -0.224300 -0.689100 0.689100
vn 0.265400 0.681800 0.681700
vn 0.224200 -0.974500 0.000000
vn 0.155700 0.000000 -0.987800
vn 0.155700 -0.698500 -0.698400
vn 0.265400 -0.681800 0.681700
vn -0.155700 -0.698500 0.698400
vn -0.265300 0.000000 0.964100
vn 0.155800 -0.698500 0.698400
vn -0.265400 -0.681800 0.681700
vn -0.265300 0.964100 0.000000
vn -0.265400 0.681800 0.681700
vn 0.447300 0.632400 0.632400
vn -0.265400 0.000000 -0.964100
vn 0.155700 -0.987800 0.000000
vn -0.265400 -0.681700 -0.681800
vn 0.265500 0.000000 0.964100
vn 0.447500 0.000000 0.894300
vn -0.447300 -0.632400 0.632400
vn -0.265500 -0.964100 0.000000
vn -0.447500 -0.894300 0.000000
vn -0.265400 0.681700 -0.681800
vn -0.447200 0.000000 0.894400
vn -0.447300 0.632400 0.632400
vn -0.447300 -0.632400 -0.632400
vn -0.447300 0.632400 -0.632400
vn -0.447500 0.000000 -0.894300
vn -0.447200 0.894400 0.000000
vn 0.282700 -0.337900 -0.897700
vn -0.321100 0.000000 -0.947100
vn 0.321100 0.000000 -0.947100
vn -0.282700 -0.337900 -0.897700
vn 0.604500 0.000000 -0.796600
vn 0.207100 -0.674100 -0.709000
vn 0.583700 -0.233600 -0.777600
vn -0.583700 -0.233600 -0.777600
vn -0.604500 0.000000 -0.796600
vn -0.207100 -0.674100 -0.709000
vn 0.137900 0.861100 -0.489400
vn 0.000000 0.999100 -0.042100
vn -0.137900 0.861100 -0.489400
vn 0.197400 0.675700 -0.710200
vn 0.472900 0.600400 -0.644900
vn -0.197400 0.675700 -0.710200
vn -0.472900 0.600400 -0.644900
vn -0.473800 -0.473800 0.742300
vn -0.244000 -0.702200 0.668800
vn 0.473800 -0.473800 0.742300
vn -0.702200 -0.244000 0.668800
vn -0.702200 0.244000 0.668800
vn -0.473800 0.473800 0.742300
vn 0.244000 -0.702200 0.668800
vn 0.702200 -0.244000 0.668800
vn 0.473800 0.473800 0.742300
vn -0.244000 0.702200 0.668800
vn 0.244000 0.702200 0.668800
vn 0.702200 0.244000 0.668800
vn 0.000000 -0.999100 -0.042100
vn 0.000000 0.000000 1.000000
vn -0.999300 0.000000 -0.036300
vn 0.999300 0.000000 -0.036300
vn -0.705000 -0.706800 -0.057400
vn -0.618700 -0.783600 -0.055600
vn -0.705900 -0.705900 -0.057500
vn -0.617800 -0.784300 -0.055500
vn 0.705100 -0.706900 -0.055500
vn 0.618600 -0.783600 -0.057300
vn 0.706000 -0.706000 -0.055500
vn 0.617800 -0.784200 -0.057300
vn -0.705100 0.706900 -0.055500
vn -0.618600 0.783600 -0.057300
vn -0.706000 0.706000 -0.055500
vn -0.617800 0.784200 -0.057300
vn 0.705000 0.706800 -0.057400
vn 0.618700 0.783600 -0.055600
vn 0.705900 0.705900 -0.057500
vn 0.617800 0.784300 -0.055500
usemtl m_hummer_mat
s 1
f 1/1/1 2/2/1 3/3/1
f 1/1/1 4/4/1 2/2/1
f 1/1/1 3/3/1 5/5/1
f 1/1/1 6/6/1 4/4/1
f 1/1/1 5/5/1 7/7/1
f 1/1/1 8/8/1 6/6/1
f 1/1/1 7/7/1 9/9/1
f 1/1/1 9/9/1 8/8/1
f 10/1/2 11/3/2 12/2/2
f 10/1/2 13/5/2 11/3/2
f 10/1/2 12/2/2 14/4/2
f 10/1/2 15/7/2 13/5/2
f 10/1/2 14/4/2 16/6/2
f 10/1/2 17/9/2 15/7/2
f 10/1/2 16/6/2 18/8/2
f 10/1/2 18/8/2 17/9/2
f 19/10/3 20/11/4 21/12/5
f 19/10/3 22/13/6 20/11/4
f 19/10/3 21/12/5 23/14/7
f 19/10/3 24/15/8 22/13/6
f 19/10/3 23/14/7 25/16/9
f 19/10/3 25/16/9 24/15/8
f 20/11/4 26/17/10 21/12/5
f 20/11/4 22/13/6 27/15/11
f 20/11/4 28/10/12 26/17/10
f 20/11/4 27/15/11 28/10/12
f 23/14/7 29/12/13 25/16/9
f 23/14/7 21/12/5 30/18/14
f 23/14/7 31/19/15 29/12/13
f 23/14/7 30/18/14 31/19/15
f 24/15/8 32/20/16 22/13/6
f 24/15/8 25/16/9 33/21/17
f 24/15/8 34/22/18 32/20/16
f 24/15/8 33/21/17 34/22/18
f 26/17/10 28/10/12 35/12/19
f 26/17/10 36/19/20 21/12/5
f 26/17/10 35/12/19 37/23/21
f 26/17/10 37/23/21 36/19/20
f 21/12/5 36/19/20 30/18/14
f 27/15/11 22/13/6 38/22/22
f 27/15/11 39/21/23 28/10/12
f 27/15/11 38/22/22 40/24/24
f 27/15/11 40/24/24 39/21/23
f 38/22/22 22/13/6 32/20/16
f 29/12/13 31/19/15 41/23/25
f 29/12/13 42/10/26 25/16/9
f 29/12/13 41/23/25 43/17/27
f 29/12/13 43/17/27 42/10/26
f 25/16/9 42/10/26 33/21/17
f 34/22/18 33/21/17 44/24/28
f 35/12/19 45/19/29 37/23/21
f 35/12/19 28/10/12 46/16/30
f 35/12/19 47/14/31 45/19/29
f 35/12/19 46/16/30 47/14/31
f 28/10/12 39/21/23 46/16/30
f 36/19/20 48/25/32 30/18/14
f 36/19/20 37/23/21 49/26/33
f 36/19/20 49/26/33 48/25/32
f 40/24/24 50/22/34 39/21/23
f 31/19/15 51/27/35 41/23/25
f 31/19/15 30/18/14 52/26/36
f 31/19/15 52/26/36 51/27/35
f 30/18/14 48/25/32 52/26/36
f 43/17/27 53/11/37 42/10/26
f 43/17/27 41/23/25 54/19/38
f 43/17/27 55/12/39 53/11/37
f 43/17/27 54/19/38 55/12/39
f 33/21/17 56/15/40 44/24/28
f 33/21/17 42/10/26 56/15/40
f 42/10/26 53/11/37 56/15/40
f 45/19/29 47/14/31 57/18/41
f 45/19/29 58/27/42 37/23/21
f 45/19/29 57/18/41 59/26/43
f 45/19/29 59/26/43 58/27/42
f 37/23/21 58/27/42 49/26/33
f 46/16/30 39/21/23 60/15/44
f 46/16/30 61/10/45 47/14/31
f 46/16/30 60/15/44 61/10/45
f 55/12/39 54/19/38 57/18/41
f 55/12/39 61/10/45 53/11/37
f 55/12/39 47/14/31 61/10/45
f 55/12/39 57/18/41 47/14/31
f 39/21/23 50/22/34 60/15/44
f 51/27/35 52/26/36 62/28/46
f 51/27/35 63/26/47 41/23/25
f 51/27/35 62/28/46 64/29/48
f 51/27/35 64/29/48 63/26/47
f 41/23/25 63/26/47 54/19/38
f 48/25/32 49/26/33 65/30/49
f 48/25/32 66/29/50 52/26/36
f 48/25/32 65/30/49 66/29/50
f 52/26/36 66/29/50 62/28/46
f 44/24/28 56/15/40 67/22/51
f 59/26/43 68/28/52 58/27/42
f 59/26/43 57/18/41 69/25/53
f 59/26/43 70/29/54 68/28/52
f 59/26/43 69/25/53 70/29/54
f 54/19/38 63/26/47 69/25/53
f 54/19/38 69/25/53 57/18/41
f 53/11/37 61/10/45 71/13/55
f 53/11/37 71/13/55 56/15/40
f 56/15/40 71/13/55 67/22/51
f 61/10/45 60/15/44 71/13/55
f 50/22/34 72/20/56 60/15/44
f 72/20/56 67/22/51 71/13/55
f 72/20/56 71/13/55 60/15/44
f 64/29/48 62/28/46 73/31/57
f 64/29/48 74/30/58 63/26/47
f 64/29/48 73/31/57 75/32/59
f 64/29/48 75/32/59 74/30/58
f 69/25/53 74/30/58 70/29/54
f 69/25/53 63/26/47 74/30/58
f 49/26/33 76/29/60 65/30/49
f 49/26/33 58/27/42 76/29/60
f 58/27/42 68/28/52 76/29/60
f 66/29/50 77/33/61 62/28/46
f 66/29/50 65/30/49 78/31/62
f 66/29/50 78/31/62 77/33/61
f 77/33/61 73/31/57 62/28/46
f 75/32/59 79/31/63 74/30/58
f 74/30/58 79/31/63 70/29/54
f 68/28/52 80/31/64 76/29/60
f 68/28/52 70/29/54 81/33/65
f 68/28/52 81/33/65 80/31/64
f 81/33/65 70/29/54 79/31/63
f 65/30/49 82/32/66 78/31/62
f 65/30/49 76/29/60 82/32/66
f 82/32/66 76/29/60 80/31/64
f 83/34/67 84/35/68 85/36/69
f 83/34/67 86/37/70 84/35/68
f 83/34/67 85/36/69 87/38/71
f 83/34/67 88/39/72 86/37/70
f 83/34/67 87/38/71 89/40/73
f 83/34/67 89/40/73 88/39/72
f 84/35/68 86/37/70 90/41/74
f 84/35/68 90/41/74 91/42/75
f 88/39/72 92/43/76 86/37/70
f 86/37/70 92/43/76 90/41/74
f 93/44/77 94/45/78 95/46/78
f 93/44/77 96/47/79 94/45/78
f 93/44/77 97/48/80 96/47/79
f 93/44/77 98/49/81 97/48/80
f 96/47/79 97/48/80 99/50/82
f 96/47/79 99/50/82 100/51/83
f 101/52/84 102/53/85 103/54/86
f 101/52/84 104/55/87 102/53/85
f 101/52/84 105/56/88 104/55/87
f 101/52/84 106/57/89 105/56/88
f 103/54/86 102/53/85 107/58/90
f 103/54/86 107/58/90 108/59/91
f 103/54/86 108/59/91 109/60/92
f 106/57/89 110/61/93 105/56/88
f 106/57/89 109/60/92 111/62/94
f 106/57/89 111/62/94 110/61/93
f 108/59/91 112/63/95 109/60/92
f 109/60/92 112/63/95 111/62/94
f 113/64/96 114/65/96 115/66/96
f 113/64/96 116/67/96 114/65/96
f 117/68/97 118/69/97 119/70/97
f 117/68/97 120/71/97 118/69/97
f 121/72/98 122/73/98 123/74/98
f 121/72/98 124/75/98 122/73/98
f 125/76/99 126/77/99 127/78/99
f 125/76/99 128/79/99 126/77/99
f 129/80/100 130/80/101 131/80/102
f 129/80/100 132/80/103 130/80/101
f 133/80/104 134/80/105 135/80/106
f 133/80/104 136/80/107 134/80/105
f 137/80/108 138/80/109 139/80/110
f 137/80/108 140/80/111 138/80/109
f 141/80/112 142/80/113 143/80/114
f 141/80/112 144/80/115 142/80/113
