# Blender v2.77 (sub 0) OBJ File: 'Ground.blend'
# www.blender.org
mtllib Ground.mtl
o Plane
v -44.407612 -0.754188 75.596382
v 44.407612 -0.754188 75.596382
v -44.407612 -0.754188 -75.596382
v 44.407612 -0.754188 -75.596382
v -0.000000 -0.754188 75.596382
v -0.000000 -0.754188 -75.596382
v -44.407612 -0.754188 -0.000000
v 44.407612 -0.754188 -0.000000
v -0.000000 -0.754188 -0.000000
v -14.802537 -0.754188 -75.596382
v -29.605074 -0.754188 -75.596382
v -29.605074 -0.754188 75.596382
v -14.802537 -0.754188 75.596382
v -14.802537 8.524924 -0.000000
v -29.605074 -0.754188 -0.000000
v 14.802537 -0.754188 75.596382
v 29.605074 -0.754188 75.596382
v 29.605074 -0.754188 -75.596382
v 14.802537 -0.754188 -75.596382
v 29.605074 -0.754188 -0.000000
v 14.802537 -0.754188 -0.000000
v 44.407612 -0.754188 -37.798191
v -0.000000 -0.754188 -37.798191
v -44.407612 -0.754188 -37.798191
v -29.605074 -0.754188 -37.798191
v -14.802537 -0.754188 -37.798191
v 14.802537 -0.754188 -37.798191
v 29.605074 11.765701 -37.798191
v -44.407612 -0.754188 37.798191
v 44.407612 -0.754188 37.798191
v -0.000000 -0.754188 37.798191
v -29.605074 -0.754188 37.798191
v -14.802537 -0.754188 37.798191
v 14.802537 6.234396 37.798191
v 29.605074 -0.754188 37.798191
vn 0.6261 0.7402 -0.2452
vn 0.0000 1.0000 0.0000
vn 0.0000 0.9712 0.2384
vn -0.4269 0.9043 0.0000
vn 0.4211 0.8919 -0.1649
vn -0.6458 0.7635 0.0000
vn -0.5311 0.8473 0.0000
vn 0.5200 0.8295 -0.2036
vn 0.0000 0.9493 0.3144
vn 0.0000 0.9833 0.1818
vn 0.5311 0.8473 0.0000
vn -0.5200 0.8295 0.2036
vn 0.0000 0.9833 -0.1818
vn 0.0000 0.9493 -0.3144
vn -0.6261 0.7402 0.2452
vn 0.0000 0.9712 -0.2384
vn 0.6458 0.7635 0.0000
vn 0.4269 0.9043 0.0000
vn -0.4211 0.8919 0.1649
usemtl GroundGreen
s off
f 22//1 18//1 28//1
f 23//2 10//2 26//2
f 31//3 14//3 33//3
f 30//2 20//2 35//2
f 32//2 7//2 29//2
f 33//2 15//2 32//2
f 25//2 3//2 24//2
f 26//2 11//2 25//2
f 34//4 9//4 31//4
f 35//5 21//5 34//5
f 27//2 6//2 23//2
f 28//6 19//6 27//6
f 20//2 27//2 21//2
f 21//2 23//2 9//2
f 14//7 25//7 15//7
f 15//2 24//2 7//2
f 9//8 26//8 14//8
f 8//9 28//9 20//9
f 17//10 34//10 16//10
f 16//2 31//2 5//2
f 13//2 32//2 12//2
f 12//2 29//2 1//2
f 2//2 35//2 17//2
f 5//2 33//2 13//2
f 22//2 4//2 18//2
f 23//2 6//2 10//2
f 31//11 9//11 14//11
f 30//2 8//2 20//2
f 32//2 15//2 7//2
f 33//12 14//12 15//12
f 25//2 11//2 3//2
f 26//2 10//2 11//2
f 34//13 21//13 9//13
f 35//2 20//2 21//2
f 27//2 19//2 6//2
f 28//14 18//14 19//14
f 20//15 28//15 27//15
f 21//2 27//2 23//2
f 14//16 26//16 25//16
f 15//2 25//2 24//2
f 9//2 23//2 26//2
f 8//17 22//17 28//17
f 17//18 35//18 34//18
f 16//19 34//19 31//19
f 13//2 33//2 32//2
f 12//2 32//2 29//2
f 2//2 30//2 35//2
f 5//2 31//2 33//2
